<svg width="64" height="64" viewBox="0 0 64 64" fill="none" xmlns="http://www.w3.org/2000/svg">
<path d="M30.4345 11.334L34.8936 17.4559C35.1379 17.7916 34.944 18.1952 34.4901 18.2959L31.4138 18.9777C30.9597 19.0784 30.4695 18.8264 30.3937 18.4534L29.0109 11.6495C28.8773 10.9921 30.0036 10.7424 30.4345 11.334Z" fill="white"/>
<path fill-rule="evenodd" clip-rule="evenodd" d="M20.2316 21.8968L12.3509 31.3435C10.7813 33.7476 13.41 36.6773 15.9696 35.3765L31.3158 27.5771L30.7322 31.5675C29.6053 39.2737 25.8436 46.3518 20.0868 51.5975C19.1769 52.4268 19.7635 53.9416 20.9947 53.9416H37.1053H47.4056C48.2681 53.9416 48.9157 53.1542 48.7496 52.3079L47.5252 46.0759C47.1872 44.3557 47.0684 42.5995 47.172 40.8493L47.6505 32.7584C48.3161 21.5009 37.1365 13.3121 26.6043 17.3425C24.1257 18.2909 21.9317 19.8589 20.2316 21.8968ZM28.333 20.5222C28.7706 20.9756 28.1959 22.008 27.0493 22.8281C25.9027 23.6482 24.6185 23.9455 24.1809 23.492C23.7432 23.0386 24.3179 22.0063 25.4645 21.1862C26.6111 20.366 27.8954 20.0688 28.333 20.5222Z" fill="white"/>
<path d="M36.0089 10.4432L37.9733 17.5885C38.0855 17.9967 37.8315 18.4437 37.4499 18.5095L34.6538 18.992C34.2723 19.0578 33.9572 18.709 34.0048 18.2733L34.8364 10.6456C34.9169 9.90747 35.8188 9.75183 36.0089 10.4432Z" fill="white"/>
</svg>
