<svg width="45" height="45" viewBox="0 0 45 45" fill="none" xmlns="http://www.w3.org/2000/svg">
<path d="M26 34.5V34.9644C26 37.4123 27.4403 39.631 29.6762 40.6274C30.8988 41.1723 30.51 43 29.1714 43H22.487H15.8286C14.49 43 14.1012 41.1723 15.3238 40.6274C17.5597 39.631 19 37.4123 19 34.9644V34.5V27.0593C19 26.5882 18.8194 26.1349 18.4955 25.7929L18.1795 25.4592C14.7924 21.8831 15.0184 16.2183 18.6796 12.9234C20.1352 11.6134 21.1099 9.85354 21.4481 7.92472L21.4987 7.63625C21.7161 6.39659 23.479 6.35203 23.7588 7.57913L23.9122 8.25239C24.306 9.97975 25.2027 11.5517 26.4892 12.7698C30.0849 16.1745 30.2393 21.8496 26.8342 25.4448L26.5165 25.7802C26.1849 26.1304 26 26.5944 26 27.0767V34.5Z" fill="white" stroke="#AAAAAA"/>
<path d="M26 27H19" stroke="#AAAAAA"/>
<path d="M27 38H18" stroke="#AAAAAA"/>
<path d="M26.5 13.1413L25 17.5978" stroke="#AAAAAA"/>
<path d="M26 12.25L25 17.5978" stroke="#AAAAAA"/>
</svg>
