<svg width="45" height="45" viewBox="0 0 45 45" fill="none" xmlns="http://www.w3.org/2000/svg">
<path d="M25 6.5H26C26.5523 6.5 27 6.94772 27 7.5V7.9962C27 8.54997 26.55 8.9983 25.9962 8.9962L25.0038 8.99244C24.45 8.99034 24 9.43867 24 9.99243V10.8074C24 10.9346 24.0243 11.0607 24.0715 11.1788L27.2315 19.0787C27.7299 20.3246 27.803 21.7002 27.4397 22.992L27.1158 24.1433C26.0531 27.921 32 30.6894 32 34.6136C32 43 32 43 24.8258 43H20.1742C13 43 13 43 13 34.6136C13 30.6894 18.9468 27.921 17.8842 24.1433L17.5603 22.992C17.197 21.7002 17.2701 20.3246 17.7685 19.0787L20.9285 11.1788C20.9757 11.0607 21 10.9346 21 10.8074V9.99243C21 9.43867 20.55 8.99034 19.9962 8.99244L19.0038 8.9962C18.45 8.9983 18 8.54997 18 7.9962V7.5C18 6.94772 18.4477 6.5 19 6.5H20C20.5523 6.5 21 6.05229 21 5.5L21 4C21 3.44771 21.4477 3 22 3H23C23.5523 3 24 3.44772 24 4V5.5C24 6.05228 24.4477 6.5 25 6.5Z" fill="white" stroke="#AAAAAA"/>
<path d="M25 14L20 14" stroke="#AAAAAA"/>
<path d="M18 25L27 25" stroke="#AAAAAA"/>
</svg>
