<svg width="45" height="45" viewBox="0 0 45 45" fill="none" xmlns="http://www.w3.org/2000/svg">
<path d="M20.3438 7.52116L23.3145 12.513C23.4773 12.7867 23.3481 13.1158 23.0457 13.1979L20.9962 13.7539C20.6937 13.836 20.3671 13.6305 20.3166 13.3264L19.3954 7.77845C19.3064 7.24234 20.0567 7.03878 20.3438 7.52116Z" fill="white" stroke="#AAAAAA"/>
<path d="M7.18919 22.5L12.9433 15.6025C14.1846 14.1146 15.7866 12.9697 17.5963 12.2772C25.2864 9.33443 33.4492 15.3135 32.9632 23.5331L32.6138 29.4407C32.5382 30.7186 32.6249 32.0009 32.8717 33.2569L33.7657 37.8072C33.887 38.4251 33.4141 39 32.7844 39H25.2636H13.5005C12.6015 39 12.1732 37.894 12.8376 37.2885C17.0409 33.4583 19.7875 28.2903 20.6103 22.6636L21.0364 19.75L9.83143 25.4447C7.96255 26.3945 6.04315 24.2554 7.18919 22.5Z" fill="white" stroke="#AAAAAA"/>
<ellipse rx="1.86368" ry="0.833099" transform="matrix(0.813359 -0.581762 0.694476 0.719516 17.3427 15.6832)" fill="#AAAAAA"/>
<path d="M24.2203 7.21792L25.8395 12.4682C25.932 12.7682 25.7226 13.0966 25.4081 13.145L23.1033 13.4995C22.7888 13.5479 22.5291 13.2916 22.5683 12.9714L23.2538 7.3666C23.3202 6.82424 24.0636 6.70987 24.2203 7.21792Z" fill="white" stroke="#AAAAAA"/>
</svg>
