<svg width="45" height="45" viewBox="0 0 45 45" fill="none" xmlns="http://www.w3.org/2000/svg">
<path d="M17.6521 22.5H29.5189L33.6214 32.2556C34.8686 35.2215 32.6907 38.5 29.4733 38.5H17.0224C13.692 38.5 11.5155 35.0079 12.9824 32.0179L17.6521 22.5Z" fill="white" stroke="#AAAAAA"/>
<path d="M32.5 21.2295C32.5 24.3144 31.4332 26.3489 29.7666 27.6283C28.0775 28.925 25.7022 29.5 23 29.5C20.2978 29.5 17.9225 28.925 16.2334 27.6283C14.5668 26.3489 13.5 24.3144 13.5 21.2295C13.5 19.6722 13.7727 18.6582 14.2055 17.9899C14.628 17.3376 15.2402 16.9577 16.0563 16.7427C16.8894 16.5233 17.9072 16.4834 19.0983 16.5054C19.5519 16.5137 20.0382 16.5315 20.5446 16.55C21.3297 16.5787 22.1634 16.6092 23 16.6092C23.8366 16.6092 24.6703 16.5787 25.4554 16.55C25.9618 16.5315 26.4481 16.5137 26.9017 16.5054C28.0928 16.4834 29.1106 16.5233 29.9437 16.7427C30.7598 16.9577 31.372 17.3376 31.7945 17.9899C32.2273 18.6582 32.5 19.6722 32.5 21.2295Z" fill="white" stroke="#AAAAAA"/>
<path d="M28.5 14.5C28.5 18.4759 25.9392 21.5 23 21.5C20.0608 21.5 17.5 18.4759 17.5 14.5C17.5 10.5241 20.0608 7.5 23 7.5C25.9392 7.5 28.5 10.5241 28.5 14.5Z" fill="white" stroke="#AAAAAA"/>
</svg>
