<svg width="45" height="45" viewBox="0 0 45 45" fill="none" xmlns="http://www.w3.org/2000/svg">
<path d="M26.9872 22.0949L30.7467 37.0232C31.3829 39.5494 29.4729 42 26.8678 42H18.1322C15.5271 42 13.6171 39.5494 14.2533 37.0232L18.0128 22.0949C18.6603 19.5238 17.7141 16.8141 15.6068 15.2049C13.9639 13.9504 13 12.0015 13 9.93437V6.79964L14.1219 8.59493C14.5208 9.23318 15.4552 9.21868 15.834 8.56835L16.8644 6.79964L18.9855 8.98502C18.9948 8.9946 19.0075 9 19.0209 9H19.9063C20.6789 9 21.0658 8.06584 20.5195 7.5195C20.2197 7.21972 20.1806 6.74715 20.427 6.40217L22.5 3.5L24.573 6.40217C24.8194 6.74715 24.7803 7.21972 24.4805 7.5195C23.9342 8.06584 24.3211 9 25.0937 9H25.9795C25.9926 9 26.0052 8.9948 26.0145 8.98554L28.2 6.79964L29.1737 8.53082C29.5459 9.19263 30.4909 9.21447 30.8933 8.57056L32 6.79964V9.93437C32 12.0015 31.0361 13.9504 29.3932 15.2049C27.2859 16.8141 26.3397 19.5238 26.9872 22.0949Z" fill="white" stroke="#AAAAAA"/>
<path d="M16.5 28L28.5 28" stroke="#AAAAAA"/>
<path d="M18 19L18.1061 19.0696C20.8129 20.844 24.3213 20.8166 27 19V19" stroke="#AAAAAA"/>
</svg>
