<svg width="45" height="45" viewBox="0 0 45 45" fill="none" xmlns="http://www.w3.org/2000/svg">
<path d="M32 38H13C12.4477 38 12 37.5523 12 37V32.1951C12 31.6428 12.4477 31.1951 13 31.1951H14.4706V13.0488H13C12.4477 13.0488 12 12.6011 12 12.0488V8C12 7.44772 12.4477 7 13 7H15.9412C16.4935 7 16.9412 7.44772 16.9412 8V10C16.9412 10.5523 17.3889 11 17.9412 11H19C19.5523 11 20 10.5523 20 10V8C20 7.44772 20.4477 7 21 7H24C24.5523 7 25 7.44772 25 8V10C25 10.5523 25.4477 11 26 11H27.0588C27.6111 11 28.0588 10.5523 28.0588 10V8C28.0588 7.44772 28.5065 7 29.0588 7H32C32.5523 7 33 7.44772 33 8V12.0488C33 12.6011 32.5523 13.0488 32 13.0488H30.5294V31.1951H32C32.5523 31.1951 33 31.6428 33 32.1951V37C33 37.5523 32.5523 38 32 38Z" fill="white"/>
<path d="M30.5294 31.1951H32C32.5523 31.1951 33 31.6428 33 32.1951V37C33 37.5523 32.5523 38 32 38H13C12.4477 38 12 37.5523 12 37V32.1951C12 31.6428 12.4477 31.1951 13 31.1951H14.4706M30.5294 31.1951V13.0488M30.5294 31.1951H14.4706M30.5294 13.0488H32C32.5523 13.0488 33 12.6011 33 12.0488V8C33 7.44772 32.5523 7 32 7H29.0588C28.5065 7 28.0588 7.44772 28.0588 8V10C28.0588 10.5523 27.6111 11 27.0588 11H26C25.4477 11 25 10.5523 25 10V8C25 7.44772 24.5523 7 24 7H21C20.4477 7 20 7.44772 20 8V10C20 10.5523 19.5523 11 19 11H17.9412C17.3889 11 16.9412 10.5523 16.9412 10V8C16.9412 7.44772 16.4935 7 15.9412 7H13C12.4477 7 12 7.44772 12 8V12.0488C12 12.6011 12.4477 13.0488 13 13.0488H14.4706M30.5294 13.0488H14.4706M14.4706 13.0488V31.1951" stroke="#AAAAAA"/>
</svg>
